<?xml version="1.0" encoding="UTF-8" standalone="no"?>
<!-- Created with Inkscape (http://www.inkscape.org/) -->

<svg
   xmlns:dc="http://purl.org/dc/elements/1.1/"
   xmlns:cc="http://creativecommons.org/ns#"
   xmlns:rdf="http://www.w3.org/1999/02/22-rdf-syntax-ns#"
   xmlns:svg="http://www.w3.org/2000/svg"
   xmlns="http://www.w3.org/2000/svg"
   xmlns:sodipodi="http://sodipodi.sourceforge.net/DTD/sodipodi-0.dtd"
   xmlns:inkscape="http://www.inkscape.org/namespaces/inkscape"
   id="svg2"
   version="1.1"
   inkscape:version="0.48.4 r9939"
   width="1042.8375"
   height="354.33125"
   xml:space="preserve"
   sodipodi:docname="JDem_logo_blanc_soustraction.ai"><metadata
     id="metadata8"><rdf:RDF><cc:Work
         rdf:about=""><dc:format>image/svg+xml</dc:format><dc:type
           rdf:resource="http://purl.org/dc/dcmitype/StillImage" /><dc:title></dc:title></cc:Work></rdf:RDF></metadata><defs
     id="defs6"><clipPath
       clipPathUnits="userSpaceOnUse"
       id="clipPath20"><path
         d="m 0,283.465 834.27,0 L 834.27,0 0,0 0,283.465 z"
         id="path22" /></clipPath></defs><sodipodi:namedview
     pagecolor="#ffffff"
     bordercolor="#666666"
     borderopacity="1"
     objecttolerance="10"
     gridtolerance="10"
     guidetolerance="10"
     inkscape:pageopacity="0"
     inkscape:pageshadow="2"
     inkscape:window-width="640"
     inkscape:window-height="480"
     id="namedview4"
     showgrid="false"
     inkscape:zoom="0.39891161"
     inkscape:cx="521.41876"
     inkscape:cy="177.16562"
     inkscape:window-x="390"
     inkscape:window-y="117"
     inkscape:window-maximized="0"
     inkscape:current-layer="g10" /><g
     id="g10"
     inkscape:groupmode="layer"
     inkscape:label="JDem_logo_blanc_soustraction"
     transform="matrix(1.25,0,0,-1.25,0,354.33125)"><g
       id="g12"
       transform="translate(293.2207,228.3184)"><path
         d="m 0,0 53.511,0 0,-9.141 -44.18,0 0,-29.262 43.799,0 0,-9.141 -43.799,0 0,-36.689 43.799,0 0,-9.141 -53.13,0 L 0,0 z"
         style="fill:#ffffff;fill-opacity:1;fill-rule:nonzero;stroke:none"
         id="path14" /></g><g
       id="g16"><g
         id="g18"
         clip-path="url(#clipPath20)"><g
           id="g24"
           transform="translate(366.4219,228.3184)"><path
             d="m 0,0 9.331,0 0,-56.367 c 0,-6.687 0.127,-10.855 0.381,-12.505 0.465,-3.682 1.544,-6.76 3.237,-9.236 1.692,-2.475 4.295,-4.549 7.808,-6.221 3.512,-1.672 7.046,-2.507 10.6,-2.507 3.089,0 6.052,0.656 8.887,1.968 2.835,1.311 5.205,3.131 7.11,5.459 1.904,2.326 3.3,5.141 4.189,8.442 0.635,2.37 0.952,7.237 0.952,14.6 l 0,56.367 9.331,0 0,-56.367 c 0,-8.338 -0.815,-15.076 -2.443,-20.217 -1.63,-5.142 -4.888,-9.617 -9.776,-13.426 -4.888,-3.808 -10.802,-5.713 -17.742,-5.713 -7.532,0 -13.987,1.8 -19.36,5.396 C 7.13,-86.731 3.533,-81.97 1.714,-76.045 0.571,-72.406 0,-65.847 0,-56.367 L 0,0 z"
             style="fill:#ffffff;fill-opacity:1;fill-rule:nonzero;stroke:none"
             id="path26" /></g><g
           id="g28"
           transform="translate(454.54,134.9443)"><path
             d="m 0,0 0,93.374 2.031,0 62.144,-71.576 0,71.576 9.204,0 L 73.379,0 71.284,0 9.648,70.705 9.648,0 0,0 z"
             style="fill:#ffffff;fill-opacity:1;fill-rule:nonzero;stroke:none"
             id="path30" /></g><g
           id="g32"
           transform="translate(553.957,228.3184)"><path
             d="m 0,0 53.511,0 0,-9.141 -44.18,0 0,-29.262 43.799,0 0,-9.141 -43.799,0 0,-36.689 43.799,0 0,-9.141 -53.13,0 L 0,0 z"
             style="fill:#ffffff;fill-opacity:1;fill-rule:nonzero;stroke:none"
             id="path34" /></g><g
           id="g36"
           transform="translate(617.1924,152.3369)"><path
             d="m 0,0 7.935,4.761 c 5.586,-10.283 12.039,-15.425 19.36,-15.425 3.131,0 6.072,0.73 8.823,2.19 2.75,1.46 4.845,3.417 6.284,5.871 1.439,2.454 2.159,5.057 2.159,7.808 0,3.131 -1.059,6.199 -3.174,9.204 -2.92,4.147 -8.252,9.141 -15.996,14.981 -7.787,5.881 -12.632,10.134 -14.537,12.758 -3.3,4.401 -4.951,9.162 -4.951,14.283 0,4.062 0.973,7.765 2.92,11.108 1.947,3.342 4.687,5.977 8.221,7.903 3.532,1.925 7.373,2.888 11.52,2.888 4.401,0 8.516,-1.09 12.347,-3.269 3.829,-2.18 7.881,-6.189 12.155,-12.029 l -7.617,-5.776 c -3.512,4.655 -6.507,7.722 -8.981,9.204 -2.477,1.481 -5.174,2.222 -8.094,2.222 -3.767,0 -6.846,-1.143 -9.236,-3.428 -2.391,-2.285 -3.586,-5.1 -3.586,-8.442 0,-2.032 0.423,-3.999 1.269,-5.904 0.846,-1.904 2.391,-3.978 4.634,-6.22 1.227,-1.186 5.247,-4.296 12.061,-9.332 8.082,-5.966 13.626,-11.277 16.63,-15.932 3.004,-4.656 4.507,-9.331 4.507,-14.028 0,-6.771 -2.57,-12.654 -7.713,-17.647 -5.14,-4.994 -11.393,-7.49 -18.756,-7.49 -5.671,0 -10.813,1.513 -15.425,4.538 C 8.146,-12.178 3.893,-7.109 0,0"
             style="fill:#ffffff;fill-opacity:1;fill-rule:nonzero;stroke:none"
             id="path38" /></g><g
           id="g40"
           transform="translate(63.9492,101.5908)"><path
             d="m 0,0 c -5.391,1.639 -14.278,2.459 -26.66,2.459 l -6.094,0 0,-69.609 9.961,0 c 11.914,0 20.175,0.741 24.785,2.224 6.484,2.108 11.582,5.903 15.293,11.387 3.711,5.484 5.567,12.187 5.567,20.11 0,8.313 -2.013,15.417 -6.036,21.31 C 12.792,-6.226 7.187,-2.187 0,0"
             style="fill:#ffffff;fill-opacity:1;fill-rule:nonzero;stroke:none"
             id="path42" /></g><g
           id="g44"
           transform="translate(267.46,26.2959)"><path
             d="M 0,0 -8.517,61.641 -38.992,0 -41.193,0 -72.032,62.109 -80.499,0 l -8.32,0 12.34,86.191 1.4,0 35.039,-70.722 34.702,70.722 1.381,0 L 8.446,0 0,0 z m -102.776,77.754 -40.782,0 0,-27.012 40.43,0 0,-8.437 -40.43,0 0,-33.867 40.43,0 0,-8.438 -49.043,0 0,86.191 49.395,0 0,-8.437 z M -177.524,19.219 C -181.255,12.656 -186.099,7.812 -192.056,4.687 -198.013,1.562 -206.363,0 -217.104,0 l -27.422,0 0,86.191 17.871,0 c 12.89,0 22.245,-1.035 28.066,-3.105 8.359,-2.93 14.892,-8.008 19.6,-15.234 4.706,-7.227 7.06,-15.841 7.06,-25.84 0,-8.634 -1.865,-16.231 -5.595,-22.793 m 136.368,104.41 c 4.876,-3.428 8.925,-5.84 12.149,-7.236 2.119,-0.932 4.197,-1.397 6.232,-1.397 2.671,0 5.099,0.803 7.283,2.412 2.184,1.608 3.711,3.745 4.579,6.411 0.869,2.666 1.305,7.829 1.305,15.489 l 0,62.714 9.331,0 0,-63.032 c 0,-9.691 -0.752,-16.43 -2.254,-20.217 -1.502,-3.788 -4.01,-6.814 -7.522,-9.077 -3.513,-2.263 -7.766,-3.396 -12.759,-3.396 -3.767,0 -7.48,0.73 -11.14,2.19 -3.66,1.46 -7.712,4.031 -12.155,7.712 l 4.951,7.427 z m -226.304,-149.925 283.465,0 0,283.465 -283.465,0 0,-283.465 z"
             style="fill:#ffffff;fill-opacity:1;fill-rule:nonzero;stroke:none"
             id="path46" /></g><g
           id="g48"
           transform="translate(337.2656,106.2764)"><path
             d="m 0,0 c -6.378,0 -12.423,-1.662 -18.135,-4.985 -5.713,-3.324 -10.174,-7.799 -13.381,-13.428 -3.209,-5.629 -4.812,-11.904 -4.812,-18.823 0,-10.243 3.551,-18.893 10.651,-25.949 7.101,-7.057 15.66,-10.585 25.677,-10.585 6.689,0 12.882,1.623 18.574,4.868 5.693,3.244 10.133,7.681 13.322,13.31 3.189,5.63 4.784,11.885 4.784,18.766 0,6.841 -1.595,13.028 -4.784,18.559 -3.189,5.532 -7.678,9.958 -13.468,13.282 C 12.637,-1.662 6.495,0 0,0 m -0.381,8.379 c 13.055,0 23.98,-4.356 32.775,-13.066 8.794,-8.712 13.192,-19.435 13.192,-32.168 0,-12.618 -4.388,-23.321 -13.163,-32.11 -8.776,-8.789 -19.476,-13.183 -32.101,-13.183 -12.781,0 -23.57,4.374 -32.365,13.125 -8.794,8.749 -13.191,19.335 -13.191,31.757 0,8.281 2.003,15.957 6.009,23.028 4.006,7.07 9.468,12.607 16.387,16.611 6.919,4.003 14.404,6.006 22.457,6.006"
             style="fill:#ffffff;fill-opacity:1;fill-rule:nonzero;stroke:none"
             id="path50" /></g><g
           id="g52"
           transform="translate(483.4102,96.4912)"><path
             d="m 0,0 -6.797,-5.215 c -3.75,4.882 -8.253,8.584 -13.506,11.104 -5.254,2.519 -11.025,3.779 -17.314,3.779 -6.876,0 -13.242,-1.651 -19.102,-4.951 -5.859,-3.301 -10.4,-7.735 -13.623,-13.301 -3.222,-5.566 -4.834,-11.827 -4.834,-18.779 0,-10.509 3.604,-19.278 10.811,-26.309 7.207,-7.031 16.298,-10.547 27.275,-10.547 12.07,0 22.168,4.726 30.293,14.18 L 0,-55.195 c -4.298,-5.47 -9.659,-9.698 -16.084,-12.686 -6.426,-2.988 -13.603,-4.482 -21.533,-4.482 -15.079,0 -26.974,5.019 -35.684,15.058 -7.304,8.476 -10.957,18.711 -10.957,30.703 0,12.617 4.424,23.233 13.272,31.846 8.847,8.613 19.93,12.92 33.252,12.92 8.047,0 15.312,-1.592 21.796,-4.775 C -9.454,10.205 -4.141,5.742 0,0"
             style="fill:#ffffff;fill-opacity:1;fill-rule:nonzero;stroke:none"
             id="path54" /></g><g
           id="g56"
           transform="translate(512.7773,104.0498)"><path
             d="m 0,0 0,-29.297 14.848,-0.118 c 5.752,0 10.006,0.547 12.764,1.641 2.759,1.093 4.911,2.841 6.456,5.244 1.546,2.402 2.319,5.088 2.319,8.057 0,2.89 -0.783,5.517 -2.348,7.881 -1.565,2.363 -3.619,4.052 -6.162,5.069 C 25.334,-0.508 21.107,0 15.2,0 L 0,0 z m -8.613,8.438 17.168,0 c 9.57,0 16.054,-0.392 19.453,-1.174 5.117,-1.174 9.277,-3.686 12.48,-7.538 3.202,-3.853 4.805,-8.596 4.805,-14.228 0,-4.694 -1.105,-8.82 -3.311,-12.379 -2.207,-3.559 -5.361,-6.248 -9.462,-8.066 -4.102,-1.82 -9.766,-2.749 -16.993,-2.787 l 30.996,-40.02 -10.656,0 -30.997,40.02 -4.87,0 0,-40.02 -8.613,0 0,86.192 z"
             style="fill:#ffffff;fill-opacity:1;fill-rule:nonzero;stroke:none"
             id="path58" /></g><g
           id="g60"
           transform="translate(613.6543,94.1748)"><path
             d="m 0,0 -14.77,-31.199 29.468,0 L 0,0 z m 1.088,18.312 40.195,-86.191 -9.304,0 -13.555,28.359 -37.132,0 -13.427,-28.359 -9.609,0 40.723,86.191 2.109,0 z"
             style="fill:#ffffff;fill-opacity:1;fill-rule:nonzero;stroke:none"
             id="path62" /></g><g
           id="g64"
           transform="translate(662.7422,104.0498)"><path
             d="m 0,0 0,8.438 47.227,0 0,-8.438 -19.219,0 0,-77.754 -8.789,0 L 19.219,0 0,0 z"
             style="fill:#ffffff;fill-opacity:1;fill-rule:nonzero;stroke:none"
             id="path66" /></g><g
           id="g68"
           transform="translate(725.4492,112.4873)"><path
             d="m 0,0 49.395,0 0,-8.438 -40.782,0 0,-27.011 40.43,0 0,-8.438 -40.43,0 0,-33.867 40.43,0 0,-8.437 L 0,-86.191 0,0 z"
             style="fill:#ffffff;fill-opacity:1;fill-rule:nonzero;stroke:none"
             id="path70" /></g><g
           id="g72"
           transform="translate(783.8203,42.3506)"><path
             d="m 0,0 7.324,4.395 c 5.156,-9.493 11.113,-14.239 17.871,-14.239 2.891,0 5.605,0.674 8.145,2.022 2.539,1.347 4.473,3.154 5.801,5.42 1.327,2.265 1.992,4.667 1.992,7.207 0,2.89 -0.977,5.722 -2.93,8.496 -2.695,3.827 -7.617,8.437 -14.766,13.828 -7.187,5.429 -11.66,9.355 -13.417,11.777 -3.047,4.062 -4.571,8.457 -4.571,13.184 0,3.75 0.899,7.167 2.696,10.254 1.795,3.085 4.326,5.517 7.587,7.295 3.261,1.777 6.806,2.666 10.635,2.666 4.063,0 7.861,-1.007 11.397,-3.018 3.535,-2.012 7.274,-5.713 11.22,-11.103 l -7.031,-5.332 c -3.243,4.296 -6.006,7.128 -8.291,8.496 -2.285,1.366 -4.775,2.05 -7.471,2.05 -3.477,0 -6.319,-1.054 -8.525,-3.164 -2.207,-2.109 -3.311,-4.707 -3.311,-7.793 0,-1.875 0.39,-3.691 1.172,-5.449 0.782,-1.758 2.206,-3.672 4.278,-5.742 1.132,-1.094 4.842,-3.965 11.132,-8.613 7.461,-5.508 12.578,-10.411 15.352,-14.707 2.774,-4.298 4.16,-8.614 4.16,-12.95 0,-6.25 -2.373,-11.68 -7.119,-16.289 -4.746,-4.609 -10.517,-6.914 -17.314,-6.914 -5.236,0 -9.982,1.397 -14.239,4.19 C 7.52,-11.241 3.594,-6.562 0,0"
             style="fill:#ffffff;fill-opacity:1;fill-rule:nonzero;stroke:none"
             id="path74" /></g></g></g></g></svg>